Release Title 

Operation Endgame 2010 H264 XviD By STAR.1 

Release Date 

16 July 2010 (USA) 

Release Length 

01:22:07 

Storyline 

A action-comedy about two teams of government assassins working out of a top-secret underground facility using code names from the Tarot deck. When our hero--The Fool--arrives for his first day at work to find that the boss has been killed under mysterious circumstances, he must find the killer before the whole place blows up. 

Cast 


Zach Galifianakis ... Hermit 

Emilie de Ravin ... Heirophant 

Maggie Q ... High Priestess 

Odette Yustman ... Temperence 

Rob Corddry ... Chariot 

Adam Scott ... Magician 

Ellen Barkin ... Empress 

Ving Rhames ... Judgement 

Brandon T. Jackson ... Tower 

Jeffrey Tambor ... Devil 

Joe Anderson ... Fool 

Beth Grant ... Interviewer 

Bob Odenkirk ... Emperor 

Tim Bagley ... Carl 

Michael Hitchcock ... Neal 

Matt Baker ... Bathroom Victim 


Genre 

Action | Drama | Comedy 

Language 

English 

Original Source 

Operation.Endgame.2010.DVDRip.XviD-LUSi





Video 

Format : AVC
Format/Info : Advanced Video Codec
Format profile : High@L3.0
Format settings, CABAC : Yes
Format settings, ReFrames : 6 frames
Codec ID : avc1
Codec ID/Info : Advanced Video Coding
Duration : 1h 22mn
Bit rate mode : Variable
Bit rate : 1 000 Kbps
Width : 720 pixels
Height : 304 pixels
Display aspect ratio : 2.35:1
Original display aspect ratio : 2.35:1
Frame rate mode : Variable
Frame rate : 23.946 fps
Minimum frame rate : 11.989 fps
Maximum frame rate : 23.981 fps
Color space : YUV
Chroma subsampling : 4:2:0
Bit depth : 8 bits
Scan type : Progressive
Bits/(Pixel*Frame) : 0.191
Stream size : 587 MiB (86%)
Writing library : x264 core 79
Encoded date : UTC 2010-07-27 02:36:31
Tagged date : UTC 2010-07-27 04:42:50
Color primaries : BT.601-6 525, BT.1358 525, BT.1700 NTSC, SMPTE 170M
Transfer characteristics : BT.709-5, BT.1361
Matrix coefficients : BT.601-6 525, BT.1358 525, BT.1700 NTSC, SMPTE 170M


Audio 

ID : 2
Format : AAC
Format/Info : Advanced Audio Codec
Format version : Version 4
Format profile : LC
Format settings, SBR : No
Codec ID : 40
Duration : 1h 22mn
Bit rate mode : Variable
Bit rate : 160 Kbps
Maximum bit rate : 226 Kbps
Channel(s) : 2 channels
Channel positions : Front: L R
Sampling rate : 48.0 KHz
Stream size : 93.8 MiB (14%)
Encoded date : UTC 2010-07-27 02:36:31
Tagged date : UTC 2010-07-27 04:42:50


Size of file 

684mb 

Notes 

just done the general things to this release 
Greets to all the warriors past and present 
 
http://www.imdb.com/title/tt1268987/



Screenshots
 
http://postimg.com/image/19000/18507.jpg
 
http://postimg.com/image/19000/18508.jpg
 
http://postimg.com/image/19000/18509.jpg